<svg width="33" height="32" viewBox="0 0 33 32" fill="none" xmlns="http://www.w3.org/2000/svg">
<path d="M30.1533 12.8046H19.8822V2.69388C19.8797 2.39638 19.8187 2.10229 19.7026 1.82838C19.5864 1.55448 19.4175 1.30613 19.2054 1.09752C18.9933 0.888909 18.7422 0.724119 18.4664 0.612561C18.1906 0.501004 17.8955 0.444863 17.598 0.447344H15.3174C14.7169 0.44281 14.1392 0.676899 13.7112 1.09816C13.2832 1.51942 13.04 2.09337 13.035 2.69388V12.8046H2.7648C2.16429 12.8001 1.58656 13.0342 1.15858 13.4554C0.730597 13.8767 0.487393 14.4506 0.482422 15.0511L0.482422 17.2977C0.487393 17.8982 0.730597 18.4721 1.15858 18.8934C1.58656 19.3147 2.16429 19.5487 2.7648 19.5442H13.035V29.655C13.04 30.2555 13.2832 30.8294 13.7112 31.2507C14.1392 31.6719 14.7169 31.906 15.3174 31.9015H17.598C18.1985 31.906 18.7762 31.6719 19.2042 31.2507C19.6322 30.8294 19.8754 30.2555 19.8804 29.655V19.5442H30.1533C30.7538 19.5487 31.3316 19.3147 31.7595 18.8934C32.1875 18.4721 32.4307 17.8982 32.4357 17.2977V15.0511C32.4307 14.4506 32.1875 13.8767 31.7595 13.4554C31.3316 13.0342 30.7538 12.8001 30.1533 12.8046Z" fill="white"/>
</svg>
