<svg width="17" height="28" viewBox="0 0 14 15" fill="none" xmlns="http://www.w3.org/2000/svg">
<path d="M13.5 0.9375H9.75022L9.45644 0.389584C9.39418 0.272468 9.2983 0.17396 9.17958 0.105137C9.06087 0.0363129 8.92402 -9.73117e-05 8.78444 3.56381e-07H5.21244C5.07355 -0.000131485 4.93741 0.0363198 4.81954 0.1052C4.70167 0.17408 4.60681 0.272618 4.54578 0.389584L4.25022 0.9375H0.5C0.367392 0.9375 0.240215 0.986886 0.146447 1.07479C0.0526784 1.1627 0 1.28193 0 1.40625V2.34375C0 2.46807 0.0526784 2.5873 0.146447 2.67521C0.240215 2.76311 0.367392 2.8125 0.5 2.8125H13.5C13.6326 2.8125 13.7598 2.76311 13.8536 2.67521C13.9473 2.5873 14 2.46807 14 2.34375V1.40625C14 1.28193 13.9473 1.1627 13.8536 1.07479C13.7598 0.986886 13.6326 0.9375 13.5 0.9375ZM1.66267 13.6817C1.68652 14.0387 1.8546 14.3738 2.1327 14.6187C2.41079 14.8636 2.778 15 3.15956 15H10.8404C11.222 15 11.5892 14.8636 11.8673 14.6187C12.1454 14.3738 12.3135 14.0387 12.3373 13.6817L13 3.75H1L1.66267 13.6817Z" fill="#373867"/>
</svg>
