<svg width="29" height="27" viewBox="0 0 29 27" xmlns="http://www.w3.org/2000/svg">
<path fill-rule="evenodd" clip-rule="evenodd" d="M3.10254 0.00488281L1.33477 1.76046L6.4158 6.80644C5.94248 7.196 5.47406 7.61436 5.01079 8.05927C3.97427 9.05473 3.03654 10.1175 2.21104 11.1807C1.71291 11.8223 1.35925 12.3269 1.16561 12.6276L0.734863 13.2965L1.16561 13.9653C1.35925 14.266 1.71291 14.7707 2.21104 15.4122C3.03654 16.4754 3.97427 17.5382 5.01079 18.5337C8.04906 21.4516 11.3092 23.2275 14.7187 23.2275C16.8698 23.2275 18.9615 22.5205 20.9756 21.2658L26.3348 26.588L28.1025 24.8325L3.10254 0.00488281ZM19.1494 19.4523L17.2586 17.5745C16.5142 18.0113 15.6459 18.262 14.7187 18.262C11.9572 18.262 9.71866 16.0388 9.71866 13.2965C9.71866 12.3756 9.97107 11.5133 10.4109 10.774L8.19331 8.57169C7.70906 8.95951 7.22713 9.38453 6.74871 9.844C5.80595 10.7494 4.94664 11.7233 4.19084 12.6967C4.02761 12.907 3.87677 13.1076 3.73886 13.2965C3.87677 13.4854 4.02761 13.686 4.19084 13.8962C4.94664 14.8696 5.80595 15.8435 6.74871 16.7489C9.36552 19.2621 12.0873 20.7447 14.7187 20.7447C16.1789 20.7447 17.6669 20.2882 19.1494 19.4523ZM12.3033 12.6534C12.2481 12.8585 12.2187 13.0741 12.2187 13.2965C12.2187 14.6677 13.3379 15.7792 14.7187 15.7792C14.9426 15.7792 15.1597 15.75 15.3662 15.6951L12.3033 12.6534ZM24.8412 18.1266L23.0734 16.371C23.8662 15.5752 24.5948 14.7355 25.2465 13.8962C25.4097 13.686 25.5605 13.4854 25.6984 13.2965C25.5605 13.1076 25.4097 12.907 25.2465 12.6967C24.4907 11.7233 23.6314 10.7494 22.6886 9.844C20.0718 7.33086 17.35 5.84819 14.7187 5.84819C14.0658 5.84819 13.4073 5.93946 12.7463 6.11511L10.7688 4.15128C12.0594 3.64024 13.3775 3.36543 14.7187 3.36543C18.1281 3.36543 21.3883 5.14138 24.4265 8.05927C25.463 9.05473 26.4008 10.1175 27.2263 11.1807C27.7244 11.8223 28.0781 12.3269 28.2717 12.6276L28.7024 13.2965L28.2717 13.9653C28.0781 14.266 27.7244 14.7707 27.2263 15.4122C26.5123 16.3318 25.7144 17.251 24.8412 18.1266Z" fill="#373867"/>
</svg>
