<svg id="Icon" enable-background="new 0 0 96 96" viewBox="0 0 96 96" width="25" heigth="25" xmlns="http://www.w3.org/2000/svg"><path id="Search" d="m49.557 18.444c.781.781.781 2.047 0 2.828-.391.391-.902.586-1.414.586s-1.023-.195-1.414-.586c-7.02-7.019-18.438-7.019-25.457 0-.781.781-2.047.781-2.828 0s-.781-2.047 0-2.828c8.577-8.578 22.535-8.578 31.113 0zm40.443 63.556c0 2.137-.832 4.146-2.344 5.656-1.51 1.512-3.519 2.344-5.656 2.344s-4.146-.832-5.656-2.344l-21-21c-.781-.781-.781-2.047 0-2.828l2.828-2.828-4.435-4.435c-5.28 4.623-12.184 7.435-19.737 7.435-16.542 0-30-13.458-30-30s13.458-30 30-30 30 13.458 30 30c0 7.553-2.812 14.457-7.435 19.737l4.435 4.435 2.828-2.828c.781-.781 2.047-.781 2.828 0l21 21c1.512 1.51 2.344 3.519 2.344 5.656zm-30-48c0-14.336-11.663-26-26-26s-26 11.664-26 26 11.663 26 26 26 26-11.664 26-26zm26 48c0-1.068-.416-2.072-1.172-2.828l-19.586-19.586-5.656 5.656 19.586 19.586c1.512 1.512 4.145 1.512 5.656 0 .756-.756 1.172-1.76 1.172-2.828z" fill="rgb(55, 56, 103)"></path></svg>