<svg width="29" height="21" viewBox="0 0 29 21" xmlns="http://www.w3.org/2000/svg">
<path fill-rule="evenodd" clip-rule="evenodd" d="M14.6249 0.365234C18.0343 0.365234 21.2945 2.14118 24.3328 5.05908C25.3693 6.05454 26.307 7.11729 27.1325 8.18049C27.6306 8.82206 27.9843 9.32675 28.178 9.62742L28.6087 10.2963L28.178 10.9651C27.9843 11.2658 27.6306 11.7705 27.1325 12.412C26.307 13.4752 25.3693 14.538 24.3328 15.5335C21.2945 18.4514 18.0343 20.2273 14.6249 20.2273C11.2155 20.2273 7.95531 18.4514 4.91704 15.5335C3.88052 14.538 2.94279 13.4752 2.11729 12.412C1.61916 11.7705 1.2655 11.2658 1.07186 10.9651L0.641113 10.2963L1.07186 9.62742C1.2655 9.32675 1.61916 8.82206 2.11729 8.18049C2.94279 7.11729 3.88052 6.05454 4.91704 5.05908C7.95531 2.14118 11.2155 0.365234 14.6249 0.365234ZM25.1527 9.69653C24.3969 8.72309 23.5376 7.74921 22.5949 6.84381C19.978 4.33067 17.2563 2.84799 14.6249 2.84799C11.9936 2.84799 9.27177 4.33067 6.65496 6.84381C5.7122 7.74921 4.85289 8.72309 4.09709 9.69653C3.93386 9.90677 3.78302 10.1074 3.64511 10.2963C3.78302 10.4852 3.93386 10.6858 4.09709 10.896C4.85289 11.8694 5.7122 12.8433 6.65496 13.7487C9.27177 16.2619 11.9936 17.7445 14.6249 17.7445C17.2563 17.7445 19.978 16.2619 22.5949 13.7487C23.5376 12.8433 24.3969 11.8694 25.1527 10.896C25.316 10.6858 25.4668 10.4852 25.6047 10.2963C25.4668 10.1074 25.316 9.90677 25.1527 9.69653ZM9.62491 10.2963C9.62491 13.0387 11.8635 15.2618 14.6249 15.2618C17.3863 15.2618 19.6249 13.0387 19.6249 10.2963C19.6249 7.55389 17.3863 5.33075 14.6249 5.33075C11.8635 5.33075 9.62491 7.55389 9.62491 10.2963ZM17.1249 10.2963C17.1249 11.6675 16.0056 12.779 14.6249 12.779C13.2442 12.779 12.1249 11.6675 12.1249 10.2963C12.1249 8.92508 13.2442 7.81351 14.6249 7.81351C16.0056 7.81351 17.1249 8.92508 17.1249 10.2963Z" fill="#373867"/>
</svg>
